<?xml version="1.0" encoding="utf-8"?>
<!-- Generator: Adobe Illustrator 16.0.4, SVG Export Plug-In . SVG Version: 6.00 Build 0)  -->
<!DOCTYPE svg PUBLIC "-//W3C//DTD SVG 1.1//EN" "http://www.w3.org/Graphics/SVG/1.1/DTD/svg11.dtd">
<svg version="1.1" id="Layer_1" xmlns="http://www.w3.org/2000/svg" xmlns:xlink="http://www.w3.org/1999/xlink" x="0px" y="0px"
	 width="200px" height="200px" viewBox="0 0 200 200" enable-background="new 0 0 200 200" xml:space="preserve">
<path fill="#575351" d="M75.366,14.682H58.697v76.366l63.827,0.036L75.366,14.682z"/>
<g>
	<path fill="#575351" d="M69.23,4.742c-3.542,1.134-6.998,2.457-10.354,3.965h12.802L69.23,4.742z"/>
	<polygon fill="#575351" points="97.476,97.045 58.697,97.022 58.697,174.184 97.476,174.184 	"/>
	<path fill="#575351" d="M52.722,180.159H40.883c3.756,2.745,7.709,5.239,11.839,7.446V180.159z"/>
	<path fill="#575351" d="M52.722,97.019L0.037,96.99C0.013,97.88,0,98.774,0,99.67c0,29.643,12.945,56.256,33.483,74.514h19.239
		V97.019z"/>
	<path fill="#575351" d="M146.039,91.098l52.934,0.028c-2.748-32.363-20.955-60.316-47.214-76.444h-5.72V91.098L146.039,91.098z"/>
	<path fill="#575351" d="M0.378,91.015l52.344,0.029V14.682h-5.138C21.355,30.791,3.16,58.699,0.378,91.015z"/>
	<path fill="#575351" d="M146.039,117.807l29.037,47.045c15.119-17.476,24.266-40.261,24.266-65.182
		c0-0.859-0.012-1.715-0.031-2.569l-53.271-0.029L146.039,117.807L146.039,117.807z"/>
	<path fill="#575351" d="M78.699,8.707h61.363V8.531C127.716,3.05,114.051,0,99.671,0c-8.445,0-16.644,1.055-24.475,3.032
		L78.699,8.707z"/>
	<path fill="#575351" d="M140.062,180.159H58.697v10.396c12.499,5.646,26.369,8.786,40.974,8.786c14.38,0,28.045-3.05,40.392-8.53
		V180.159L140.062,180.159z"/>
	<polygon fill="#575351" points="140.062,14.682 82.386,14.682 129.547,91.088 140.062,91.093 	"/>
	<path fill="#575351" d="M146.039,187.914c4.338-2.285,8.486-4.879,12.42-7.755h-12.42V187.914z"/>
	<path fill="#575351" d="M146.039,174.184h19.82c1.725-1.533,3.396-3.125,5.01-4.771l-24.83-40.229V174.184z"/>
	<polygon fill="#575351" points="140.062,97.068 133.236,97.064 140.062,108.124 	"/>
	<polygon fill="#575351" points="140.062,119.501 126.213,97.061 103.45,97.047 103.45,174.184 140.062,174.184 	"/>
	<g enable-background="new    ">
		<path fill="#F9F4E8" d="M141.16,95.462c-0.402,0-0.807-0.141-1.125-0.424l0.345-0.413c0.238,0.197,0.488,0.322,0.791,0.322
			c0.238,0,0.382-0.095,0.382-0.25v-0.008c0-0.147-0.09-0.223-0.533-0.337c-0.533-0.136-0.878-0.283-0.878-0.81v-0.008
			c0-0.48,0.386-0.798,0.927-0.798c0.387,0,0.716,0.121,0.984,0.337l-0.303,0.438c-0.234-0.163-0.466-0.261-0.689-0.261
			c-0.223,0-0.34,0.102-0.34,0.23v0.008c0,0.174,0.113,0.23,0.571,0.348c0.537,0.141,0.84,0.333,0.84,0.795v0.008
			C142.132,95.166,141.73,95.462,141.16,95.462z"/>
		<path fill="#F9F4E8" d="M145.84,95.424v-1.729l-0.746,1.132h-0.015l-0.738-1.12v1.718h-0.571v-2.648h0.628l0.696,1.119
			l0.696-1.119h0.628v2.648H145.84z"/>
		<path fill="#F9F4E8" d="M149.021,95.424l-0.242-0.594h-1.12l-0.242,0.594h-0.595l1.136-2.668h0.537l1.136,2.668H149.021z
			 M148.219,93.456l-0.352,0.859h0.704L148.219,93.456z"/>
		<path fill="#F9F4E8" d="M150.062,95.424v-2.648h0.582v2.648H150.062z"/>
		<path fill="#F9F4E8" d="M153.163,95.424l-1.282-1.684v1.684h-0.576v-2.648h0.538l1.241,1.631v-1.631h0.575v2.648H153.163z"/>
		<path fill="#F9F4E8" d="M156.367,95.462c-0.401,0-0.807-0.141-1.124-0.424l0.345-0.413c0.238,0.197,0.488,0.322,0.791,0.322
			c0.238,0,0.382-0.095,0.382-0.25v-0.008c0-0.147-0.091-0.223-0.534-0.337c-0.533-0.136-0.877-0.283-0.877-0.81v-0.008
			c0-0.48,0.386-0.798,0.927-0.798c0.386,0,0.715,0.121,0.983,0.337l-0.303,0.438c-0.234-0.163-0.465-0.261-0.688-0.261
			s-0.341,0.102-0.341,0.23v0.008c0,0.174,0.113,0.23,0.572,0.348c0.537,0.141,0.84,0.333,0.84,0.795v0.008
			C157.34,95.166,156.938,95.462,156.367,95.462z"/>
		<path fill="#F9F4E8" d="M158.986,93.312v2.111h-0.584v-2.111h-0.806v-0.537h2.195v0.537H158.986z"/>
	</g>
	<g enable-background="new    ">
		<g enable-background="new    ">
			<path fill="#F9F4E8" d="M149.005,127.704l0.062-0.521c0.44,0.031,0.738,0.145,0.99,0.545c0.3,0.477,0.209,0.945-0.211,1.209
				c-0.375,0.234-0.685,0.162-1.242-0.043l-0.512-0.188l0.614,0.978l-0.426,0.268l-1.042-1.66l0.391-0.245l1.081,0.362
				c0.405,0.134,0.596,0.166,0.782,0.049c0.188-0.117,0.213-0.307,0.102-0.483C149.485,127.801,149.314,127.742,149.005,127.704z"/>
			<path fill="#F9F4E8" d="M149.549,131.971l0.743-1.981l-1.426,0.896l-0.306-0.487l2.243-1.408l0.286,0.456l-0.722,1.918
				l1.382-0.867l0.305,0.486l-2.242,1.408L149.549,131.971z"/>
			<path fill="#F9F4E8" d="M150.697,133.801l-0.549-0.875l2.242-1.408l0.55,0.875c0.442,0.705,0.265,1.496-0.366,1.893l-0.007,0.004
				C151.937,134.686,151.141,134.506,150.697,133.801z M152.244,133.773c0.397-0.25,0.504-0.697,0.251-1.102l-0.239-0.381
				l-1.353,0.849l0.239,0.382c0.254,0.403,0.697,0.505,1.094,0.256L152.244,133.773z"/>
			<path fill="#F9F4E8" d="M153.371,138.059l0.374-0.521l-0.596-0.948l-0.632,0.11l-0.316-0.503l2.863-0.458l0.287,0.456
				l-1.656,2.38L153.371,138.059z M154.611,136.332l-0.916,0.16l0.375,0.596L154.611,136.332z"/>
			<path fill="#F9F4E8" d="M154.416,139.758l-0.273-0.437l1.689-2.325l0.342,0.545l-1.211,1.578l1.947-0.404l0.334,0.531
				L154.416,139.758z"/>
			<path fill="#F9F4E8" d="M155.217,140.998l2.242-1.408l1.062,1.691l-0.438,0.275l-0.755-1.202l-0.456,0.286l0.664,1.058
				l-0.439,0.276l-0.664-1.059l-0.47,0.296l0.765,1.218l-0.439,0.275L155.217,140.998z"/>
			<path fill="#F9F4E8" d="M157.166,144.102l2.242-1.408l1.062,1.692l-0.438,0.274l-0.755-1.201l-0.456,0.286l0.664,1.058
				l-0.439,0.275l-0.664-1.057l-0.47,0.295l0.765,1.218l-0.439,0.276L157.166,144.102z"/>
			<path fill="#F9F4E8" d="M159.392,147.646l0.453-0.986l-1.087-0.023l-0.352-0.561l1.632,0.065l0.631-1.44l0.362,0.576
				l-0.432,0.928l1.025,0.018l0.352,0.561l-1.566-0.062l-0.656,1.502L159.392,147.646z"/>
			<path fill="#F9F4E8" d="M162.41,148.482l-1.789,1.123l-0.31-0.494l1.788-1.122l-0.428-0.683l0.455-0.285l1.166,1.857
				l-0.455,0.286L162.41,148.482z"/>
			<path fill="#F9F4E8" d="M162.357,152.441c-0.213-0.34-0.31-0.758-0.239-1.178l0.534,0.072c-0.041,0.307-0.014,0.585,0.146,0.842
				c0.127,0.201,0.283,0.272,0.415,0.189l0.007-0.004c0.125-0.078,0.141-0.195,0.002-0.631c-0.168-0.523-0.228-0.894,0.219-1.174
				l0.006-0.004c0.407-0.256,0.881-0.098,1.17,0.36c0.205,0.327,0.277,0.671,0.237,1.013l-0.532-0.023
				c0.014-0.285-0.027-0.533-0.146-0.721c-0.118-0.189-0.267-0.235-0.376-0.166l-0.007,0.004c-0.147,0.092-0.136,0.219,0.009,0.668
				c0.167,0.53,0.165,0.889-0.227,1.135l-0.006,0.004C163.125,153.107,162.661,152.925,162.357,152.441z"/>
		</g>
	</g>
	<g enable-background="new    ">
		<path fill="#F9F4E8" d="M54.297,42.781h0.204l0.254,0.261c0.598,0.628,0.916,0.912,1.286,0.916c0.25,0,0.48-0.121,0.48-0.488
			c0-0.223-0.113-0.409-0.208-0.522l0.235-0.106c0.144,0.17,0.249,0.413,0.249,0.696c0,0.53-0.363,0.753-0.715,0.753
			c-0.454,0-0.821-0.329-1.32-0.848l-0.182-0.197h-0.008v1.105h-0.276V42.781z"/>
		<path fill="#F9F4E8" d="M54.297,44.836h2.551v0.359l-1.291,0.817c-0.299,0.189-0.567,0.337-0.828,0.458l0.004,0.007
			c0.34-0.03,0.65-0.038,1.048-0.038h1.067v0.31h-2.551v-0.333l1.294-0.81c0.284-0.178,0.575-0.348,0.852-0.477l-0.004-0.012
			c-0.321,0.019-0.628,0.026-1.052,0.026h-1.09V44.836z"/>
		<path fill="#F9F4E8" d="M56.813,47.323c0.03,0.201,0.053,0.439,0.053,0.7c0,0.473-0.109,0.81-0.317,1.033
			c-0.209,0.227-0.504,0.359-0.916,0.359c-0.416,0-0.757-0.129-0.991-0.367c-0.239-0.238-0.367-0.632-0.367-1.128
			c0-0.234,0.011-0.431,0.03-0.598H56.813z M54.558,47.652c-0.015,0.083-0.019,0.205-0.019,0.333c0,0.704,0.394,1.086,1.082,1.086
			c0.602,0.004,0.984-0.336,0.984-1.033c0-0.17-0.016-0.299-0.034-0.386H54.558z"/>
		<path fill="#F9F4E8" d="M55.1,51.054l-0.803-0.265v-0.34l2.551,0.866v0.397l-2.551,0.871V52.23l0.803-0.272V51.054z M55.356,51.89
			l0.734-0.25c0.166-0.057,0.317-0.095,0.465-0.132V51.5c-0.151-0.038-0.306-0.079-0.461-0.128l-0.738-0.25V51.89z"/>
		<path fill="#F9F4E8" d="M54.297,53.314l2.551-0.833v0.355l-1.257,0.397c-0.344,0.11-0.654,0.205-0.953,0.272v0.008
			c0.295,0.072,0.616,0.178,0.949,0.291l1.261,0.432v0.352l-2.551-0.912V53.314z"/>
		<path fill="#F9F4E8" d="M55.492,56.184v-0.992h-0.919v1.105h-0.276v-1.434h2.551v1.377h-0.276v-1.048h-0.806v0.992H55.492z"/>
		<path fill="#F9F4E8" d="M54.698,57.478c-0.091,0.147-0.167,0.363-0.167,0.59c0,0.337,0.178,0.534,0.436,0.534
			c0.238,0,0.375-0.136,0.507-0.48c0.147-0.417,0.363-0.674,0.723-0.674c0.397,0,0.692,0.329,0.692,0.825
			c0,0.261-0.061,0.45-0.125,0.563l-0.269-0.091c0.046-0.083,0.121-0.253,0.121-0.484c0-0.348-0.208-0.48-0.382-0.48
			c-0.238,0-0.355,0.155-0.492,0.507c-0.166,0.432-0.374,0.651-0.749,0.651c-0.394,0-0.734-0.292-0.734-0.894
			c0-0.246,0.072-0.515,0.163-0.65L54.698,57.478z"/>
	</g>
	<g enable-background="new    ">
		<path fill="#F9F4E8" d="M86.864,178.762c-0.401,0-0.806-0.141-1.124-0.424l0.344-0.413c0.238,0.197,0.488,0.322,0.791,0.322
			c0.238,0,0.382-0.095,0.382-0.25v-0.008c0-0.147-0.091-0.223-0.534-0.337c-0.534-0.136-0.878-0.283-0.878-0.81v-0.008
			c0-0.48,0.386-0.798,0.927-0.798c0.386,0,0.715,0.121,0.984,0.337l-0.303,0.438c-0.235-0.163-0.466-0.261-0.689-0.261
			s-0.34,0.102-0.34,0.23v0.008c0,0.174,0.113,0.23,0.571,0.348c0.537,0.141,0.84,0.333,0.84,0.795v0.008
			C87.836,178.466,87.435,178.762,86.864,178.762z"/>
		<path fill="#F9F4E8" d="M90.075,178.762c-0.412,0-0.685-0.182-0.866-0.397l0.367-0.409c0.151,0.167,0.299,0.266,0.484,0.266
			c0.22,0,0.356-0.133,0.356-0.439v-1.706h0.598v1.732C91.014,178.451,90.635,178.762,90.075,178.762z"/>
		<path fill="#F9F4E8" d="M93.482,178.724l-0.242-0.594h-1.12l-0.242,0.594h-0.594l1.135-2.668h0.538l1.135,2.668H93.482z
			 M92.68,176.756l-0.352,0.859h0.704L92.68,176.756z"/>
		<path fill="#F9F4E8" d="M95.566,178.769c-0.779,0-1.358-0.602-1.358-1.361v-0.008c0-0.753,0.567-1.37,1.381-1.37
			c0.5,0,0.799,0.167,1.045,0.409l-0.371,0.427c-0.204-0.185-0.413-0.299-0.677-0.299c-0.447,0-0.768,0.371-0.768,0.825v0.008
			c0,0.454,0.314,0.832,0.768,0.832c0.303,0,0.488-0.121,0.696-0.311l0.371,0.375C96.38,178.587,96.077,178.769,95.566,178.769z"/>
		<path fill="#F9F4E8" d="M98.825,178.724l-0.821-1.128l-0.306,0.318v0.81h-0.583v-2.648h0.583v1.157l1.074-1.157h0.704
			l-1.079,1.123l1.128,1.525H98.825z"/>
		<path fill="#F9F4E8" d="M100.777,178.762c-0.401,0-0.806-0.141-1.124-0.424l0.344-0.413c0.239,0.197,0.488,0.322,0.792,0.322
			c0.238,0,0.382-0.095,0.382-0.25v-0.008c0-0.147-0.091-0.223-0.534-0.337c-0.533-0.136-0.877-0.283-0.877-0.81v-0.008
			c0-0.48,0.386-0.798,0.927-0.798c0.386,0,0.715,0.121,0.983,0.337l-0.303,0.438c-0.234-0.163-0.465-0.261-0.688-0.261
			c-0.223,0-0.34,0.102-0.34,0.23v0.008c0,0.174,0.113,0.23,0.572,0.348c0.537,0.141,0.84,0.333,0.84,0.795v0.008
			C101.75,178.466,101.349,178.762,100.777,178.762z"/>
		<path fill="#F9F4E8" d="M103.541,178.769c-0.818,0-1.404-0.608-1.404-1.361v-0.008c0-0.753,0.594-1.37,1.411-1.37
			s1.404,0.609,1.404,1.362v0.008C104.952,178.152,104.357,178.769,103.541,178.769z M104.343,177.399
			c0-0.454-0.333-0.833-0.802-0.833c-0.47,0-0.795,0.371-0.795,0.825v0.008c0,0.454,0.333,0.832,0.802,0.832
			c0.47,0,0.795-0.371,0.795-0.824V177.399z"/>
		<path fill="#F9F4E8" d="M107.324,178.724l-1.283-1.684v1.684h-0.575v-2.648h0.537l1.241,1.631v-1.631h0.575v2.648H107.324z"/>
		<path fill="#F9F4E8" d="M110.527,178.762c-0.4,0-0.806-0.141-1.123-0.424l0.344-0.413c0.238,0.197,0.488,0.322,0.791,0.322
			c0.238,0,0.382-0.095,0.382-0.25v-0.008c0-0.147-0.091-0.223-0.533-0.337c-0.533-0.136-0.878-0.283-0.878-0.81v-0.008
			c0-0.48,0.386-0.798,0.927-0.798c0.387,0,0.716,0.121,0.984,0.337l-0.303,0.438c-0.234-0.163-0.466-0.261-0.688-0.261
			c-0.224,0-0.341,0.102-0.341,0.23v0.008c0,0.174,0.113,0.23,0.571,0.348c0.537,0.141,0.84,0.333,0.84,0.795v0.008
			C111.5,178.466,111.1,178.762,110.527,178.762z"/>
		<path fill="#F9F4E8" d="M113.146,176.612v2.111h-0.583v-2.111h-0.806v-0.537h2.194v0.537H113.146z"/>
	</g>
	<g enable-background="new    ">
		<path fill="#F9F4E8" d="M85.164,13.265c-0.401,0-0.806-0.141-1.124-0.424l0.344-0.413c0.238,0.197,0.488,0.322,0.791,0.322
			c0.238,0,0.382-0.095,0.382-0.25v-0.008c0-0.147-0.091-0.223-0.534-0.337c-0.534-0.136-0.878-0.283-0.878-0.81v-0.008
			c0-0.48,0.386-0.798,0.927-0.798c0.386,0,0.715,0.121,0.984,0.337l-0.303,0.438c-0.235-0.163-0.466-0.261-0.689-0.261
			s-0.34,0.102-0.34,0.23v0.008c0,0.174,0.113,0.23,0.571,0.348c0.537,0.141,0.84,0.333,0.84,0.795v0.008
			C86.136,12.969,85.735,13.265,85.164,13.265z"/>
		<path fill="#F9F4E8" d="M90.684,13.245h-0.507l-0.598-1.732l-0.598,1.732h-0.507l-0.904-2.667h0.624l0.549,1.793l0.594-1.801h0.5
			l0.594,1.801l0.549-1.793h0.609L90.684,13.245z"/>
		<path fill="#F9F4E8" d="M93.645,13.227l-0.242-0.594h-1.12l-0.242,0.594h-0.594l1.135-2.668h0.538l1.135,2.668H93.645z
			 M92.843,11.259l-0.352,0.859h0.704L92.843,11.259z"/>
		<path fill="#F9F4E8" d="M95.563,13.265c-0.401,0-0.806-0.141-1.124-0.424l0.344-0.413c0.239,0.197,0.488,0.322,0.791,0.322
			c0.238,0,0.382-0.095,0.382-0.25v-0.008c0-0.147-0.091-0.223-0.534-0.337c-0.534-0.136-0.878-0.283-0.878-0.81v-0.008
			c0-0.48,0.386-0.798,0.927-0.798c0.386,0,0.715,0.121,0.984,0.337l-0.303,0.438c-0.235-0.163-0.465-0.261-0.689-0.261
			c-0.223,0-0.34,0.102-0.34,0.23v0.008c0,0.174,0.113,0.23,0.571,0.348c0.538,0.141,0.84,0.333,0.84,0.795v0.008
			C96.536,12.969,96.135,13.265,95.563,13.265z"/>
		<path fill="#F9F4E8" d="M98.697,13.227v-1.063h-1.075v1.063H97.04v-2.648h0.583v1.048h1.075v-1.048h0.583v2.648H98.697z"/>
		<path fill="#F9F4E8" d="M99.938,13.227v-2.648h0.583v2.648H99.938z"/>
		<path fill="#F9F4E8" d="M103.039,13.227l-1.282-1.684v1.684h-0.575v-2.648h0.537l1.241,1.631v-1.631h0.575v2.648H103.039z"/>
		<path fill="#F9F4E8" d="M105.443,13.271c-0.826,0-1.393-0.578-1.393-1.361v-0.008c0-0.753,0.586-1.37,1.389-1.37
			c0.477,0,0.764,0.129,1.04,0.363l-0.367,0.442c-0.204-0.17-0.386-0.269-0.692-0.269c-0.424,0-0.761,0.375-0.761,0.825v0.008
			c0,0.484,0.333,0.84,0.803,0.84c0.212,0,0.401-0.053,0.548-0.159v-0.378h-0.586v-0.504h1.15v1.15
			C106.302,13.083,105.928,13.271,105.443,13.271z"/>
		<path fill="#F9F4E8" d="M108.292,11.115v2.111h-0.583v-2.111h-0.806v-0.537h2.194v0.537H108.292z"/>
		<path fill="#F9F4E8" d="M110.715,13.271c-0.817,0-1.404-0.608-1.404-1.361v-0.008c0-0.753,0.595-1.37,1.412-1.37
			s1.403,0.609,1.403,1.362v0.008C112.126,12.655,111.532,13.271,110.715,13.271z M111.517,11.902c0-0.454-0.332-0.833-0.802-0.833
			s-0.795,0.371-0.795,0.825v0.008c0,0.454,0.333,0.832,0.803,0.832c0.469,0,0.794-0.371,0.794-0.824V11.902z"/>
		<path fill="#F9F4E8" d="M114.498,13.227l-1.282-1.684v1.684h-0.576v-2.648h0.538l1.241,1.631v-1.631h0.575v2.648H114.498z"/>
	</g>
	<g>
		<path fill="none" stroke="#F9F4E8" stroke-miterlimit="10" d="M100.39,76.559c0,4.971-4.028,8.996-9,8.996
			c-4.973,0-9-4.025-9-8.996c0-4.972,4.027-9.002,9-9.002C96.361,67.557,100.39,71.586,100.39,76.559z"/>
		<line fill="none" stroke="#F9F4E8" stroke-miterlimit="10" x1="91.51" y1="78.494" x2="94.604" y2="75.403"/>
		<line fill="none" stroke="#F9F4E8" stroke-miterlimit="10" x1="91.51" y1="82.415" x2="94.604" y2="79.324"/>
		<line fill="none" stroke="#F9F4E8" stroke-miterlimit="10" x1="91.51" y1="74.576" x2="94.604" y2="71.485"/>
	</g>
</g>
</svg>
